<?xml version="1.0" encoding="UTF-8" standalone="no"?>
<!DOCTYPE svg PUBLIC "-//W3C//DTD SVG 1.1//EN"
 "http://www.w3.org/Graphics/SVG/1.1/DTD/svg11.dtd">
<!-- Generated by graphviz version 2.43.0 (0)
 -->
<!-- Title: jsonrpc::transport::PipeTransport::BindAndListen Pages: 1 -->
<svg width="656pt" height="38pt"
 viewBox="0.00 0.00 656.00 38.00" xmlns="http://www.w3.org/2000/svg" xmlns:xlink="http://www.w3.org/1999/xlink">
<g id="graph0" class="graph" transform="scale(1 1) rotate(0) translate(4 34)">
<title>jsonrpc::transport::PipeTransport::BindAndListen</title>
<!-- Node1 -->
<g id="Node000001" class="node">
<title>Node1</title>
<g id="a_Node000001"><a xlink:title=" ">
<polygon fill="#999999" stroke="#666666" points="164,-30 0,-30 0,0 164,0 164,-30"/>
<text text-anchor="start" x="8" y="-18" font-family="Helvetica,sans-Serif" font-size="10.00">jsonrpc::transport</text>
<text text-anchor="middle" x="82" y="-7" font-family="Helvetica,sans-Serif" font-size="10.00">::PipeTransport::BindAndListen</text>
</a>
</g>
</g>
<!-- Node2 -->
<g id="Node000002" class="node">
<title>Node2</title>
<g id="a_Node000002"><a xlink:href="classjsonrpc_1_1error_1_1RpcError.html#af6c693a01e31520716999275a48b73fb" target="_top" xlink:title=" ">
<polygon fill="white" stroke="#666666" points="331,-30 200,-30 200,0 331,0 331,-30"/>
<text text-anchor="start" x="208" y="-18" font-family="Helvetica,sans-Serif" font-size="10.00">jsonrpc::error::RpcError</text>
<text text-anchor="middle" x="265.5" y="-7" font-family="Helvetica,sans-Serif" font-size="10.00">::UnexpectedFromCode</text>
</a>
</g>
</g>
<!-- Node1&#45;&gt;Node2 -->
<g id="edge1_Node000001_Node000002" class="edge">
<title>Node1&#45;&gt;Node2</title>
<g id="a_edge1_Node000001_Node000002"><a xlink:title=" ">
<path fill="none" stroke="#63b8ff" d="M164.19,-15C172.72,-15 181.35,-15 189.8,-15"/>
<polygon fill="#63b8ff" stroke="#63b8ff" points="189.98,-18.5 199.98,-15 189.98,-11.5 189.98,-18.5"/>
</a>
</g>
</g>
<!-- Node3 -->
<g id="Node000003" class="node">
<title>Node3</title>
<g id="a_Node000003"><a xlink:href="classjsonrpc_1_1error_1_1RpcError.html#a43714364e8781ace6d728a70edf089d6" target="_top" xlink:title=" ">
<polygon fill="white" stroke="#666666" points="495,-30 367,-30 367,0 495,0 495,-30"/>
<text text-anchor="start" x="375" y="-18" font-family="Helvetica,sans-Serif" font-size="10.00">jsonrpc::error::RpcError</text>
<text text-anchor="middle" x="431" y="-7" font-family="Helvetica,sans-Serif" font-size="10.00">::FromCode</text>
</a>
</g>
</g>
<!-- Node2&#45;&gt;Node3 -->
<g id="edge2_Node000002_Node000003" class="edge">
<title>Node2&#45;&gt;Node3</title>
<g id="a_edge2_Node000002_Node000003"><a xlink:title=" ">
<path fill="none" stroke="#63b8ff" d="M331.12,-15C339.59,-15 348.31,-15 356.91,-15"/>
<polygon fill="#63b8ff" stroke="#63b8ff" points="356.92,-18.5 366.92,-15 356.92,-11.5 356.92,-18.5"/>
</a>
</g>
</g>
<!-- Node4 -->
<g id="Node000004" class="node">
<title>Node4</title>
<g id="a_Node000004"><a xlink:href="namespacejsonrpc_1_1error_1_1detail.html#aae1fee218c1f2c4f51e7f029be8b0383" target="_top" xlink:title=" ">
<polygon fill="white" stroke="#666666" points="648,-30 531,-30 531,0 648,0 648,-30"/>
<text text-anchor="start" x="539" y="-18" font-family="Helvetica,sans-Serif" font-size="10.00">jsonrpc::error::detail</text>
<text text-anchor="middle" x="589.5" y="-7" font-family="Helvetica,sans-Serif" font-size="10.00">::DefaultMessageFor</text>
</a>
</g>
</g>
<!-- Node3&#45;&gt;Node4 -->
<g id="edge3_Node000003_Node000004" class="edge">
<title>Node3&#45;&gt;Node4</title>
<g id="a_edge3_Node000003_Node000004"><a xlink:title=" ">
<path fill="none" stroke="#63b8ff" d="M495.2,-15C503.59,-15 512.21,-15 520.67,-15"/>
<polygon fill="#63b8ff" stroke="#63b8ff" points="520.87,-18.5 530.87,-15 520.87,-11.5 520.87,-18.5"/>
</a>
</g>
</g>
</g>
</svg>
