<?xml version="1.0" encoding="UTF-8" standalone="no"?>
<!DOCTYPE svg PUBLIC "-//W3C//DTD SVG 1.1//EN"
 "http://www.w3.org/Graphics/SVG/1.1/DTD/svg11.dtd">
<!-- Generated by graphviz version 2.43.0 (0)
 -->
<!-- Title: jsonrpc::endpoint::RpcEndpoint::SendMethodCall Pages: 1 -->
<svg width="513pt" height="86pt"
 viewBox="0.00 0.00 513.00 86.00" xmlns="http://www.w3.org/2000/svg" xmlns:xlink="http://www.w3.org/1999/xlink">
<g id="graph0" class="graph" transform="scale(1 1) rotate(0) translate(4 82)">
<title>jsonrpc::endpoint::RpcEndpoint::SendMethodCall</title>
<!-- Node1 -->
<g id="Node000001" class="node">
<title>Node1</title>
<g id="a_Node000001"><a xlink:title=" ">
<polygon fill="#999999" stroke="#666666" points="163,-54 0,-54 0,-24 163,-24 163,-54"/>
<text text-anchor="start" x="8" y="-42" font-family="Helvetica,sans-Serif" font-size="10.00">jsonrpc::endpoint::</text>
<text text-anchor="middle" x="81.5" y="-31" font-family="Helvetica,sans-Serif" font-size="10.00">RpcEndpoint::SendMethodCall</text>
</a>
</g>
</g>
<!-- Node2 -->
<g id="Node000002" class="node">
<title>Node2</title>
<g id="a_Node000002"><a xlink:href="namespacejsonrpc_1_1error.html#a9f17280db2e160bcf8436db1f0512d10" target="_top" xlink:title=" ">
<polygon fill="white" stroke="#666666" points="354.5,-78 206.5,-78 206.5,-48 354.5,-48 354.5,-78"/>
<text text-anchor="start" x="214.5" y="-66" font-family="Helvetica,sans-Serif" font-size="10.00">jsonrpc::error::CreateClient</text>
<text text-anchor="middle" x="280.5" y="-55" font-family="Helvetica,sans-Serif" font-size="10.00">Error</text>
</a>
</g>
</g>
<!-- Node1&#45;&gt;Node2 -->
<g id="edge1_Node000001_Node000002" class="edge">
<title>Node1&#45;&gt;Node2</title>
<g id="a_edge1_Node000001_Node000002"><a xlink:title=" ">
<path fill="none" stroke="#63b8ff" d="M163.2,-48.83C174.1,-50.16 185.3,-51.52 196.24,-52.86"/>
<polygon fill="#63b8ff" stroke="#63b8ff" points="195.86,-56.34 206.21,-54.07 196.7,-49.39 195.86,-56.34"/>
</a>
</g>
</g>
<!-- Node3 -->
<g id="Node000003" class="node">
<title>Node3</title>
<g id="a_Node000003"><a xlink:href="classjsonrpc_1_1endpoint_1_1RpcEndpoint.html#ab87006bb19847eafa4b0487165a2ae82" target="_top" xlink:title=" ">
<polygon fill="white" stroke="#666666" points="362,-30 199,-30 199,0 362,0 362,-30"/>
<text text-anchor="start" x="207" y="-18" font-family="Helvetica,sans-Serif" font-size="10.00">jsonrpc::endpoint::</text>
<text text-anchor="middle" x="280.5" y="-7" font-family="Helvetica,sans-Serif" font-size="10.00">RpcEndpoint::SendMethodCall</text>
</a>
</g>
</g>
<!-- Node1&#45;&gt;Node3 -->
<g id="edge2_Node000001_Node000003" class="edge">
<title>Node1&#45;&gt;Node3</title>
<g id="a_edge2_Node000001_Node000003"><a xlink:title=" ">
<path fill="none" stroke="#63b8ff" d="M163.2,-29.17C171.67,-28.14 180.33,-27.08 188.91,-26.04"/>
<polygon fill="#63b8ff" stroke="#63b8ff" points="189.43,-29.5 198.93,-24.82 188.58,-22.55 189.43,-29.5"/>
</a>
</g>
</g>
<!-- Node4 -->
<g id="Node000004" class="node">
<title>Node4</title>
<g id="a_Node000004"><a xlink:href="classjsonrpc_1_1endpoint_1_1Request.html#a82cd14ec1dd3f15d068e5737e409663d" target="_top" xlink:title=" ">
<polygon fill="white" stroke="#666666" points="505,-30 398,-30 398,0 505,0 505,-30"/>
<text text-anchor="start" x="406" y="-18" font-family="Helvetica,sans-Serif" font-size="10.00">jsonrpc::endpoint::</text>
<text text-anchor="middle" x="451.5" y="-7" font-family="Helvetica,sans-Serif" font-size="10.00">Request::ToJson</text>
</a>
</g>
</g>
<!-- Node3&#45;&gt;Node4 -->
<g id="edge3_Node000003_Node000004" class="edge">
<title>Node3&#45;&gt;Node4</title>
<g id="a_edge3_Node000003_Node000004"><a xlink:title=" ">
<path fill="none" stroke="#63b8ff" d="M362.04,-15C370.53,-15 379.07,-15 387.32,-15"/>
<polygon fill="#63b8ff" stroke="#63b8ff" points="387.59,-18.5 397.59,-15 387.59,-11.5 387.59,-18.5"/>
</a>
</g>
</g>
</g>
</svg>
