<?xml version="1.0" encoding="UTF-8" standalone="no"?>
<!DOCTYPE svg PUBLIC "-//W3C//DTD SVG 1.1//EN"
 "http://www.w3.org/Graphics/SVG/1.1/DTD/svg11.dtd">
<!-- Generated by graphviz version 2.43.0 (0)
 -->
<!-- Title: jsonrpc::endpoint::Dispatcher::DispatchRequest Pages: 1 -->
<svg width="811pt" height="172pt"
 viewBox="0.00 0.00 811.00 172.00" xmlns="http://www.w3.org/2000/svg" xmlns:xlink="http://www.w3.org/1999/xlink">
<g id="graph0" class="graph" transform="scale(1 1) rotate(0) translate(4 168)">
<title>jsonrpc::endpoint::Dispatcher::DispatchRequest</title>
<!-- Node1 -->
<g id="Node000001" class="node">
<title>Node1</title>
<g id="a_Node000001"><a xlink:title=" ">
<polygon fill="#999999" stroke="#666666" points="158,-75 0,-75 0,-45 158,-45 158,-75"/>
<text text-anchor="start" x="8" y="-63" font-family="Helvetica,sans-Serif" font-size="10.00">jsonrpc::endpoint::</text>
<text text-anchor="middle" x="79" y="-52" font-family="Helvetica,sans-Serif" font-size="10.00">Dispatcher::DispatchRequest</text>
</a>
</g>
</g>
<!-- Node2 -->
<g id="Node000002" class="node">
<title>Node2</title>
<g id="a_Node000002"><a xlink:href="classjsonrpc_1_1endpoint_1_1Response.html#a1fb087a9e11568a9de167be16156d8f1" target="_top" xlink:title=" ">
<polygon fill="white" stroke="#666666" points="319,-110 194,-110 194,-80 319,-80 319,-110"/>
<text text-anchor="start" x="202" y="-98" font-family="Helvetica,sans-Serif" font-size="10.00">jsonrpc::endpoint::</text>
<text text-anchor="middle" x="256.5" y="-87" font-family="Helvetica,sans-Serif" font-size="10.00">Response::CreateError</text>
</a>
</g>
</g>
<!-- Node1&#45;&gt;Node2 -->
<g id="edge1_Node000001_Node000002" class="edge">
<title>Node1&#45;&gt;Node2</title>
<g id="a_edge1_Node000001_Node000002"><a xlink:title=" ">
<path fill="none" stroke="#63b8ff" d="M155.45,-75.05C164.86,-76.92 174.47,-78.84 183.82,-80.71"/>
<polygon fill="#63b8ff" stroke="#63b8ff" points="183.37,-84.18 193.86,-82.71 184.73,-77.32 183.37,-84.18"/>
</a>
</g>
</g>
<!-- Node7 -->
<g id="Node000007" class="node">
<title>Node7</title>
<g id="a_Node000007"><a xlink:href="classjsonrpc_1_1endpoint_1_1Request.html#aeded22734248d9dd10743262102673fc" target="_top" xlink:title=" ">
<polygon fill="white" stroke="#666666" points="310,-51 203,-51 203,-21 310,-21 310,-51"/>
<text text-anchor="start" x="211" y="-39" font-family="Helvetica,sans-Serif" font-size="10.00">jsonrpc::endpoint::</text>
<text text-anchor="middle" x="256.5" y="-28" font-family="Helvetica,sans-Serif" font-size="10.00">Request::FromJson</text>
</a>
</g>
</g>
<!-- Node1&#45;&gt;Node7 -->
<g id="edge6_Node000001_Node000007" class="edge">
<title>Node1&#45;&gt;Node7</title>
<g id="a_edge6_Node000001_Node000007"><a xlink:title=" ">
<path fill="none" stroke="#63b8ff" d="M158.25,-49.3C169.8,-47.72 181.57,-46.11 192.75,-44.58"/>
<polygon fill="#63b8ff" stroke="#63b8ff" points="193.39,-48.03 202.83,-43.2 192.44,-41.09 193.39,-48.03"/>
</a>
</g>
</g>
<!-- Node3 -->
<g id="Node000003" class="node">
<title>Node3</title>
<g id="a_Node000003"><a xlink:href="classjsonrpc_1_1error_1_1RpcError.html#a9a71bca815129bbef0053810b1cac3b1" target="_top" xlink:title=" ">
<polygon fill="white" stroke="#666666" points="484.5,-164 356.5,-164 356.5,-134 484.5,-134 484.5,-164"/>
<text text-anchor="start" x="364.5" y="-152" font-family="Helvetica,sans-Serif" font-size="10.00">jsonrpc::error::RpcError</text>
<text text-anchor="middle" x="420.5" y="-141" font-family="Helvetica,sans-Serif" font-size="10.00">::Code</text>
</a>
</g>
</g>
<!-- Node2&#45;&gt;Node3 -->
<g id="edge2_Node000002_Node000003" class="edge">
<title>Node2&#45;&gt;Node3</title>
<g id="a_edge2_Node000002_Node000003"><a xlink:title=" ">
<path fill="none" stroke="#63b8ff" d="M302.63,-110.04C321.86,-116.45 344.46,-123.99 364.65,-130.72"/>
<polygon fill="#63b8ff" stroke="#63b8ff" points="363.74,-134.1 374.34,-133.95 365.96,-127.46 363.74,-134.1"/>
</a>
</g>
</g>
<!-- Node4 -->
<g id="Node000004" class="node">
<title>Node4</title>
<g id="a_Node000004"><a xlink:href="classjsonrpc_1_1error_1_1RpcError.html#a43714364e8781ace6d728a70edf089d6" target="_top" xlink:title=" ">
<polygon fill="white" stroke="#666666" points="650,-75 522,-75 522,-45 650,-45 650,-75"/>
<text text-anchor="start" x="530" y="-63" font-family="Helvetica,sans-Serif" font-size="10.00">jsonrpc::error::RpcError</text>
<text text-anchor="middle" x="586" y="-52" font-family="Helvetica,sans-Serif" font-size="10.00">::FromCode</text>
</a>
</g>
</g>
<!-- Node2&#45;&gt;Node4 -->
<g id="edge3_Node000002_Node000004" class="edge">
<title>Node2&#45;&gt;Node4</title>
<g id="a_edge3_Node000002_Node000004"><a xlink:title=" ">
<path fill="none" stroke="#63b8ff" d="M319.44,-96.68C365.61,-97.01 430.08,-95.49 486,-87 500.03,-84.87 514.92,-81.45 528.77,-77.75"/>
<polygon fill="#63b8ff" stroke="#63b8ff" points="529.93,-81.06 538.64,-75.02 528.07,-74.31 529.93,-81.06"/>
</a>
</g>
</g>
<!-- Node6 -->
<g id="Node000006" class="node">
<title>Node6</title>
<g id="a_Node000006"><a xlink:href="classjsonrpc_1_1error_1_1RpcError.html#a9af3d6885d01c2707863c8b6911a952b" target="_top" xlink:title=" ">
<polygon fill="white" stroke="#666666" points="484.5,-78 356.5,-78 356.5,-48 484.5,-48 484.5,-78"/>
<text text-anchor="start" x="364.5" y="-66" font-family="Helvetica,sans-Serif" font-size="10.00">jsonrpc::error::RpcError</text>
<text text-anchor="middle" x="420.5" y="-55" font-family="Helvetica,sans-Serif" font-size="10.00">::Message</text>
</a>
</g>
</g>
<!-- Node2&#45;&gt;Node6 -->
<g id="edge5_Node000002_Node000006" class="edge">
<title>Node2&#45;&gt;Node6</title>
<g id="a_edge5_Node000002_Node000006"><a xlink:title=" ">
<path fill="none" stroke="#63b8ff" d="M319.21,-82.81C328.14,-81.05 337.4,-79.22 346.53,-77.41"/>
<polygon fill="#63b8ff" stroke="#63b8ff" points="347.22,-80.85 356.35,-75.47 345.86,-73.98 347.22,-80.85"/>
</a>
</g>
</g>
<!-- Node5 -->
<g id="Node000005" class="node">
<title>Node5</title>
<g id="a_Node000005"><a xlink:href="namespacejsonrpc_1_1error_1_1detail.html#aae1fee218c1f2c4f51e7f029be8b0383" target="_top" xlink:title=" ">
<polygon fill="white" stroke="#666666" points="803,-75 686,-75 686,-45 803,-45 803,-75"/>
<text text-anchor="start" x="694" y="-63" font-family="Helvetica,sans-Serif" font-size="10.00">jsonrpc::error::detail</text>
<text text-anchor="middle" x="744.5" y="-52" font-family="Helvetica,sans-Serif" font-size="10.00">::DefaultMessageFor</text>
</a>
</g>
</g>
<!-- Node4&#45;&gt;Node5 -->
<g id="edge4_Node000004_Node000005" class="edge">
<title>Node4&#45;&gt;Node5</title>
<g id="a_edge4_Node000004_Node000005"><a xlink:title=" ">
<path fill="none" stroke="#63b8ff" d="M650.2,-60C658.59,-60 667.21,-60 675.67,-60"/>
<polygon fill="#63b8ff" stroke="#63b8ff" points="675.87,-63.5 685.87,-60 675.87,-56.5 675.87,-63.5"/>
</a>
</g>
</g>
<!-- Node8 -->
<g id="Node000008" class="node">
<title>Node8</title>
<g id="a_Node000008"><a xlink:href="classjsonrpc_1_1error_1_1RpcError.html#af6c693a01e31520716999275a48b73fb" target="_top" xlink:title=" ">
<polygon fill="white" stroke="#666666" points="486,-30 355,-30 355,0 486,0 486,-30"/>
<text text-anchor="start" x="363" y="-18" font-family="Helvetica,sans-Serif" font-size="10.00">jsonrpc::error::RpcError</text>
<text text-anchor="middle" x="420.5" y="-7" font-family="Helvetica,sans-Serif" font-size="10.00">::UnexpectedFromCode</text>
</a>
</g>
</g>
<!-- Node7&#45;&gt;Node8 -->
<g id="edge7_Node000007_Node000008" class="edge">
<title>Node7&#45;&gt;Node8</title>
<g id="a_edge7_Node000007_Node000008"><a xlink:title=" ">
<path fill="none" stroke="#63b8ff" d="M310.1,-29.18C321.17,-27.75 333.06,-26.21 344.77,-24.69"/>
<polygon fill="#63b8ff" stroke="#63b8ff" points="345.53,-28.12 354.99,-23.36 344.63,-21.18 345.53,-28.12"/>
</a>
</g>
</g>
<!-- Node8&#45;&gt;Node4 -->
<g id="edge8_Node000008_Node000004" class="edge">
<title>Node8&#45;&gt;Node4</title>
<g id="a_edge8_Node000008_Node000004"><a xlink:title=" ">
<path fill="none" stroke="#63b8ff" d="M476.4,-30.11C490.49,-33.99 505.79,-38.2 520.33,-42.2"/>
<polygon fill="#63b8ff" stroke="#63b8ff" points="519.68,-45.65 530.25,-44.93 521.53,-38.9 519.68,-45.65"/>
</a>
</g>
</g>
</g>
</svg>
