<?xml version="1.0" encoding="UTF-8" standalone="no"?>
<!DOCTYPE svg PUBLIC "-//W3C//DTD SVG 1.1//EN"
 "http://www.w3.org/Graphics/SVG/1.1/DTD/svg11.dtd">
<!-- Generated by graphviz version 2.43.0 (0)
 -->
<!-- Title: jsonrpc::transport::PipeTransport::Start Pages: 1 -->
<svg width="457pt" height="86pt"
 viewBox="0.00 0.00 457.00 86.00" xmlns="http://www.w3.org/2000/svg" xmlns:xlink="http://www.w3.org/1999/xlink">
<g id="graph0" class="graph" transform="scale(1 1) rotate(0) translate(4 82)">
<title>jsonrpc::transport::PipeTransport::Start</title>
<!-- Node1 -->
<g id="Node000001" class="node">
<title>Node1</title>
<g id="a_Node000001"><a xlink:title=" ">
<polygon fill="#999999" stroke="#666666" points="118,-54 0,-54 0,-24 118,-24 118,-54"/>
<text text-anchor="start" x="8" y="-42" font-family="Helvetica,sans-Serif" font-size="10.00">jsonrpc::transport</text>
<text text-anchor="middle" x="59" y="-31" font-family="Helvetica,sans-Serif" font-size="10.00">::PipeTransport::Start</text>
</a>
</g>
</g>
<!-- Node2 -->
<g id="Node000002" class="node">
<title>Node2</title>
<g id="a_Node000002"><a xlink:href="classjsonrpc_1_1error_1_1RpcError.html#af6c693a01e31520716999275a48b73fb" target="_top" xlink:title=" ">
<polygon fill="white" stroke="#666666" points="285,-54 154,-54 154,-24 285,-24 285,-54"/>
<text text-anchor="start" x="162" y="-42" font-family="Helvetica,sans-Serif" font-size="10.00">jsonrpc::error::RpcError</text>
<text text-anchor="middle" x="219.5" y="-31" font-family="Helvetica,sans-Serif" font-size="10.00">::UnexpectedFromCode</text>
</a>
</g>
</g>
<!-- Node1&#45;&gt;Node2 -->
<g id="edge1_Node000001_Node000002" class="edge">
<title>Node1&#45;&gt;Node2</title>
<g id="a_edge1_Node000001_Node000002"><a xlink:title=" ">
<path fill="none" stroke="#63b8ff" d="M118.12,-39C126.5,-39 135.22,-39 143.87,-39"/>
<polygon fill="#63b8ff" stroke="#63b8ff" points="143.97,-42.5 153.97,-39 143.97,-35.5 143.97,-42.5"/>
</a>
</g>
</g>
<!-- Node3 -->
<g id="Node000003" class="node">
<title>Node3</title>
<g id="a_Node000003"><a xlink:href="namespacejsonrpc_1_1error_1_1detail.html#aae1fee218c1f2c4f51e7f029be8b0383" target="_top" xlink:title=" ">
<polygon fill="white" stroke="#666666" points="443.5,-78 326.5,-78 326.5,-48 443.5,-48 443.5,-78"/>
<text text-anchor="start" x="334.5" y="-66" font-family="Helvetica,sans-Serif" font-size="10.00">jsonrpc::error::detail</text>
<text text-anchor="middle" x="385" y="-55" font-family="Helvetica,sans-Serif" font-size="10.00">::DefaultMessageFor</text>
</a>
</g>
</g>
<!-- Node2&#45;&gt;Node3 -->
<g id="edge2_Node000002_Node000003" class="edge">
<title>Node2&#45;&gt;Node3</title>
<g id="a_edge2_Node000002_Node000003"><a xlink:title=" ">
<path fill="none" stroke="#63b8ff" d="M285.12,-48.49C295.36,-49.99 305.98,-51.55 316.29,-53.06"/>
<polygon fill="#63b8ff" stroke="#63b8ff" points="316.07,-56.57 326.47,-54.56 317.09,-49.64 316.07,-56.57"/>
</a>
</g>
</g>
<!-- Node4 -->
<g id="Node000004" class="node">
<title>Node4</title>
<g id="a_Node000004"><a xlink:href="classjsonrpc_1_1error_1_1RpcError.html#aef9c4c8109aa31b1bedf66aa8a2bc375" target="_top" xlink:title=" ">
<polygon fill="white" stroke="#666666" points="449,-30 321,-30 321,0 449,0 449,-30"/>
<text text-anchor="start" x="329" y="-18" font-family="Helvetica,sans-Serif" font-size="10.00">jsonrpc::error::RpcError</text>
<text text-anchor="middle" x="385" y="-7" font-family="Helvetica,sans-Serif" font-size="10.00">::RpcError</text>
</a>
</g>
</g>
<!-- Node2&#45;&gt;Node4 -->
<g id="edge3_Node000002_Node000004" class="edge">
<title>Node2&#45;&gt;Node4</title>
<g id="a_edge3_Node000002_Node000004"><a xlink:title=" ">
<path fill="none" stroke="#63b8ff" d="M285.12,-29.51C293.59,-28.27 302.31,-26.99 310.91,-25.73"/>
<polygon fill="#63b8ff" stroke="#63b8ff" points="311.53,-29.18 320.92,-24.26 310.52,-22.25 311.53,-29.18"/>
</a>
</g>
</g>
</g>
</svg>
