<?xml version="1.0" encoding="UTF-8" standalone="no"?>
<!DOCTYPE svg PUBLIC "-//W3C//DTD SVG 1.1//EN"
 "http://www.w3.org/Graphics/SVG/1.1/DTD/svg11.dtd">
<!-- Generated by graphviz version 2.43.0 (0)
 -->
<!-- Title: jsonrpc::transport::SocketTransport Pages: 1 -->
<svg width="151pt" height="545pt"
 viewBox="0.00 0.00 151.00 545.00" xmlns="http://www.w3.org/2000/svg" xmlns:xlink="http://www.w3.org/1999/xlink">
<g id="graph0" class="graph" transform="scale(1 1) rotate(0) translate(4 541)">
<title>jsonrpc::transport::SocketTransport</title>
<!-- Node1 -->
<g id="Node000001" class="node">
<title>Node1</title>
<g id="a_Node000001"><a xlink:title="Transport implementation using TCP/IP sockets.">
<polygon fill="#999999" stroke="transparent" points="129,-321 14,-321 14,-126 129,-126 129,-321"/>
<text text-anchor="start" x="29" y="-308.5" font-family="Helvetica,sans-Serif" font-size="10.00">jsonrpc::transport</text>
<text text-anchor="start" x="30" y="-297.5" font-family="Helvetica,sans-Serif" font-size="10.00">::SocketTransport</text>
<text text-anchor="start" x="70" y="-282.5" font-family="Helvetica,sans-Serif" font-size="10.00"> </text>
<text text-anchor="start" x="18.5" y="-267.5" font-family="Helvetica,sans-Serif" font-size="10.00">+</text>
<text text-anchor="start" x="31.5" y="-267.5" font-family="Helvetica,sans-Serif" font-size="10.00">SocketTransport()</text>
<text text-anchor="start" x="18.5" y="-252.5" font-family="Helvetica,sans-Serif" font-size="10.00">+</text>
<text text-anchor="start" x="31.5" y="-252.5" font-family="Helvetica,sans-Serif" font-size="10.00">~SocketTransport()</text>
<text text-anchor="start" x="18.5" y="-237.5" font-family="Helvetica,sans-Serif" font-size="10.00">+</text>
<text text-anchor="start" x="31.5" y="-237.5" font-family="Helvetica,sans-Serif" font-size="10.00">SocketTransport()</text>
<text text-anchor="start" x="18.5" y="-222.5" font-family="Helvetica,sans-Serif" font-size="10.00">+</text>
<text text-anchor="start" x="31.5" y="-222.5" font-family="Helvetica,sans-Serif" font-size="10.00">operator=()</text>
<text text-anchor="start" x="18.5" y="-207.5" font-family="Helvetica,sans-Serif" font-size="10.00">+</text>
<text text-anchor="start" x="31.5" y="-207.5" font-family="Helvetica,sans-Serif" font-size="10.00">SocketTransport()</text>
<text text-anchor="start" x="18.5" y="-192.5" font-family="Helvetica,sans-Serif" font-size="10.00">+</text>
<text text-anchor="start" x="31.5" y="-192.5" font-family="Helvetica,sans-Serif" font-size="10.00">operator=()</text>
<text text-anchor="start" x="18.5" y="-177.5" font-family="Helvetica,sans-Serif" font-size="10.00">+</text>
<text text-anchor="start" x="31.5" y="-177.5" font-family="Helvetica,sans-Serif" font-size="10.00">SendMessage()</text>
<text text-anchor="start" x="18.5" y="-162.5" font-family="Helvetica,sans-Serif" font-size="10.00">+</text>
<text text-anchor="start" x="31.5" y="-162.5" font-family="Helvetica,sans-Serif" font-size="10.00">ReceiveMessage()</text>
<text text-anchor="start" x="18.5" y="-147.5" font-family="Helvetica,sans-Serif" font-size="10.00">+</text>
<text text-anchor="start" x="31.5" y="-147.5" font-family="Helvetica,sans-Serif" font-size="10.00">Close()</text>
<text text-anchor="start" x="18.5" y="-132.5" font-family="Helvetica,sans-Serif" font-size="10.00">#</text>
<text text-anchor="start" x="31.5" y="-132.5" font-family="Helvetica,sans-Serif" font-size="10.00">GetSocket()</text>
<polygon fill="#666666" stroke="#666666" points="14.5,-292.5 14.5,-292.5 129.5,-292.5 129.5,-292.5 14.5,-292.5"/>
<polygon fill="#666666" stroke="#666666" points="14.5,-277.5 14.5,-277.5 129.5,-277.5 129.5,-277.5 14.5,-277.5"/>
<polygon fill="none" stroke="#666666" points="14,-126 14,-321 129,-321 129,-126 14,-126"/>
</a>
</g>
</g>
<!-- Node3 -->
<g id="Node000003" class="node">
<title>Node3</title>
<g id="a_Node000003"><a xlink:href="classjsonrpc_1_1transport_1_1FramedSocketTransport.html" target="_top" xlink:title="Transport layer using Asio sockets for JSON&#45;RPC communication with framing.">
<polygon fill="white" stroke="transparent" points="143,-90 0,-90 0,0 143,0 143,-90"/>
<text text-anchor="start" x="11.5" y="-78" font-family="Helvetica,sans-Serif" font-size="10.00">jsonrpc::transport</text>
<text text-anchor="start" x="11.5" y="-67" font-family="Helvetica,sans-Serif" font-size="10.00">::FramedSocketTransport</text>
<text text-anchor="start" x="70" y="-52" font-family="Helvetica,sans-Serif" font-size="10.00"> </text>
<text text-anchor="start" x="4.5" y="-37" font-family="Helvetica,sans-Serif" font-size="10.00">+</text>
<text text-anchor="start" x="17.5" y="-37" font-family="Helvetica,sans-Serif" font-size="10.00">FramedSocketTransport()</text>
<text text-anchor="start" x="4.5" y="-22" font-family="Helvetica,sans-Serif" font-size="10.00">+</text>
<text text-anchor="start" x="17.5" y="-22" font-family="Helvetica,sans-Serif" font-size="10.00">SendMessage()</text>
<text text-anchor="start" x="4.5" y="-7" font-family="Helvetica,sans-Serif" font-size="10.00">+</text>
<text text-anchor="start" x="17.5" y="-7" font-family="Helvetica,sans-Serif" font-size="10.00">ReceiveMessage()</text>
<polygon fill="#666666" stroke="#666666" points="0.5,-62 0.5,-62 143.5,-62 143.5,-62 0.5,-62"/>
<polygon fill="#666666" stroke="#666666" points="0.5,-47 0.5,-47 143.5,-47 143.5,-47 0.5,-47"/>
<polygon fill="none" stroke="#666666" points="0,0 0,-90 143,-90 143,0 0,0"/>
</a>
</g>
</g>
<!-- Node1&#45;&gt;Node3 -->
<g id="edge2_Node000001_Node000003" class="edge">
<title>Node1&#45;&gt;Node3</title>
<g id="a_edge2_Node000001_Node000003"><a xlink:title=" ">
<path fill="none" stroke="#63b8ff" d="M71.5,-115.76C71.5,-106.78 71.5,-98.07 71.5,-90.03"/>
<polygon fill="none" stroke="#63b8ff" points="68,-115.99 71.5,-125.99 75,-115.99 68,-115.99"/>
</a>
</g>
</g>
<!-- Node2 -->
<g id="Node000002" class="node">
<title>Node2</title>
<g id="a_Node000002"><a xlink:href="classjsonrpc_1_1transport_1_1Transport.html" target="_top" xlink:title="Base class for JSON&#45;RPC transport.">
<polygon fill="white" stroke="transparent" points="127.5,-537 15.5,-537 15.5,-357 127.5,-357 127.5,-537"/>
<text text-anchor="start" x="28.5" y="-525" font-family="Helvetica,sans-Serif" font-size="10.00">jsonrpc::transport</text>
<text text-anchor="start" x="45.5" y="-514" font-family="Helvetica,sans-Serif" font-size="10.00">::Transport</text>
<text text-anchor="start" x="69.5" y="-499" font-family="Helvetica,sans-Serif" font-size="10.00"> </text>
<text text-anchor="start" x="19.5" y="-484" font-family="Helvetica,sans-Serif" font-size="10.00">+</text>
<text text-anchor="start" x="32.5" y="-484" font-family="Helvetica,sans-Serif" font-size="10.00">Transport()</text>
<text text-anchor="start" x="19.5" y="-469" font-family="Helvetica,sans-Serif" font-size="10.00">+</text>
<text text-anchor="start" x="32.5" y="-469" font-family="Helvetica,sans-Serif" font-size="10.00">~Transport()</text>
<text text-anchor="start" x="19.5" y="-454" font-family="Helvetica,sans-Serif" font-size="10.00">+</text>
<text text-anchor="start" x="32.5" y="-454" font-family="Helvetica,sans-Serif" font-size="10.00">Transport()</text>
<text text-anchor="start" x="19.5" y="-439" font-family="Helvetica,sans-Serif" font-size="10.00">+</text>
<text text-anchor="start" x="32.5" y="-439" font-family="Helvetica,sans-Serif" font-size="10.00">operator=()</text>
<text text-anchor="start" x="19.5" y="-424" font-family="Helvetica,sans-Serif" font-size="10.00">+</text>
<text text-anchor="start" x="32.5" y="-424" font-family="Helvetica,sans-Serif" font-size="10.00">Transport()</text>
<text text-anchor="start" x="19.5" y="-409" font-family="Helvetica,sans-Serif" font-size="10.00">+</text>
<text text-anchor="start" x="32.5" y="-409" font-family="Helvetica,sans-Serif" font-size="10.00">operator=()</text>
<text text-anchor="start" x="19.5" y="-394" font-family="Helvetica,sans-Serif" font-size="10.00">+</text>
<text text-anchor="start" x="32.5" y="-394" font-family="Helvetica,sans-Serif" font-size="10.00">SendMessage()</text>
<text text-anchor="start" x="19.5" y="-379" font-family="Helvetica,sans-Serif" font-size="10.00">+</text>
<text text-anchor="start" x="32.5" y="-379" font-family="Helvetica,sans-Serif" font-size="10.00">ReceiveMessage()</text>
<text text-anchor="start" x="19.5" y="-364" font-family="Helvetica,sans-Serif" font-size="10.00">+</text>
<text text-anchor="start" x="32.5" y="-364" font-family="Helvetica,sans-Serif" font-size="10.00">Close()</text>
<polygon fill="#666666" stroke="#666666" points="15.5,-509 15.5,-509 127.5,-509 127.5,-509 15.5,-509"/>
<polygon fill="#666666" stroke="#666666" points="15.5,-494 15.5,-494 127.5,-494 127.5,-494 15.5,-494"/>
<polygon fill="none" stroke="#666666" points="15.5,-357 15.5,-537 127.5,-537 127.5,-357 15.5,-357"/>
</a>
</g>
</g>
<!-- Node2&#45;&gt;Node1 -->
<g id="edge1_Node000001_Node000002" class="edge">
<title>Node2&#45;&gt;Node1</title>
<g id="a_edge1_Node000001_Node000002"><a xlink:title=" ">
<path fill="none" stroke="#63b8ff" d="M71.5,-346.86C71.5,-338.28 71.5,-329.62 71.5,-321.07"/>
<polygon fill="none" stroke="#63b8ff" points="68,-346.86 71.5,-356.86 75,-346.86 68,-346.86"/>
</a>
</g>
</g>
</g>
</svg>
