<?xml version="1.0" encoding="UTF-8" standalone="no"?>
<!DOCTYPE svg PUBLIC "-//W3C//DTD SVG 1.1//EN"
 "http://www.w3.org/Graphics/SVG/1.1/DTD/svg11.dtd">
<!-- Generated by graphviz version 2.43.0 (0)
 -->
<!-- Title: jsonrpc::transport::FramedPipeTransport::ReceiveMessage Pages: 1 -->
<svg width="546pt" height="81pt"
 viewBox="0.00 0.00 546.00 81.00" xmlns="http://www.w3.org/2000/svg" xmlns:xlink="http://www.w3.org/1999/xlink">
<g id="graph0" class="graph" transform="scale(1 1) rotate(0) translate(4 77)">
<title>jsonrpc::transport::FramedPipeTransport::ReceiveMessage</title>
<!-- Node1 -->
<g id="Node000001" class="node">
<title>Node1</title>
<g id="a_Node000001"><a xlink:title=" ">
<polygon fill="#999999" stroke="#666666" points="125,-56.5 0,-56.5 0,-15.5 125,-15.5 125,-56.5"/>
<text text-anchor="start" x="8" y="-44.5" font-family="Helvetica,sans-Serif" font-size="10.00">jsonrpc::transport</text>
<text text-anchor="start" x="8" y="-33.5" font-family="Helvetica,sans-Serif" font-size="10.00">::FramedPipeTransport</text>
<text text-anchor="middle" x="62.5" y="-22.5" font-family="Helvetica,sans-Serif" font-size="10.00">::ReceiveMessage</text>
</a>
</g>
</g>
<!-- Node2 -->
<g id="Node000002" class="node">
<title>Node2</title>
<g id="a_Node000002"><a xlink:href="namespacejsonrpc_1_1error.html#a8eee4bf05668aeea551a7ca00cf27d14" target="_top" xlink:title=" ">
<polygon fill="white" stroke="#666666" points="538,-73 374,-73 374,-43 538,-43 538,-73"/>
<text text-anchor="start" x="382" y="-61" font-family="Helvetica,sans-Serif" font-size="10.00">jsonrpc::error::CreateTransport</text>
<text text-anchor="middle" x="456" y="-50" font-family="Helvetica,sans-Serif" font-size="10.00">Error</text>
</a>
</g>
</g>
<!-- Node1&#45;&gt;Node2 -->
<g id="edge1_Node000001_Node000002" class="edge">
<title>Node1&#45;&gt;Node2</title>
<g id="a_edge1_Node000001_Node000002"><a xlink:title=" ">
<path fill="none" stroke="#63b8ff" d="M125.1,-39.46C189.17,-43.06 290.17,-48.74 363.55,-52.86"/>
<polygon fill="#63b8ff" stroke="#63b8ff" points="363.53,-56.37 373.71,-53.43 363.92,-49.38 363.53,-56.37"/>
</a>
</g>
</g>
<!-- Node3 -->
<g id="Node000003" class="node">
<title>Node3</title>
<g id="a_Node000003"><a xlink:href="classjsonrpc_1_1transport_1_1PipeTransport.html#af381937d38c244ccc90025db433a6423" target="_top" xlink:title=" ">
<polygon fill="white" stroke="#666666" points="338,-30 161,-30 161,0 338,0 338,-30"/>
<text text-anchor="start" x="169" y="-18" font-family="Helvetica,sans-Serif" font-size="10.00">jsonrpc::transport</text>
<text text-anchor="middle" x="249.5" y="-7" font-family="Helvetica,sans-Serif" font-size="10.00">::PipeTransport::ReceiveMessage</text>
</a>
</g>
</g>
<!-- Node1&#45;&gt;Node3 -->
<g id="edge2_Node000001_Node000003" class="edge">
<title>Node1&#45;&gt;Node3</title>
<g id="a_edge2_Node000001_Node000003"><a xlink:title=" ">
<path fill="none" stroke="#63b8ff" d="M125.1,-29.01C133.34,-28.07 141.94,-27.1 150.61,-26.11"/>
<polygon fill="#63b8ff" stroke="#63b8ff" points="151.25,-29.56 160.79,-24.96 150.46,-22.61 151.25,-29.56"/>
</a>
</g>
</g>
<!-- Node3&#45;&gt;Node2 -->
<g id="edge3_Node000003_Node000002" class="edge">
<title>Node3&#45;&gt;Node2</title>
<g id="a_edge3_Node000003_Node000002"><a xlink:title=" ">
<path fill="none" stroke="#63b8ff" d="M322.02,-30.04C338.68,-33.54 356.54,-37.3 373.59,-40.88"/>
<polygon fill="#63b8ff" stroke="#63b8ff" points="373.01,-44.34 383.52,-42.97 374.45,-37.49 373.01,-44.34"/>
</a>
</g>
</g>
<!-- Node4 -->
<g id="Node000004" class="node">
<title>Node4</title>
<g id="a_Node000004"><a xlink:href="namespacejsonrpc_1_1utils.html#af7bc95c38b3f575dfe5fc73eb9450581" target="_top" xlink:title=" ">
<polygon fill="white" stroke="#666666" points="509,-24.5 403,-24.5 403,-5.5 509,-5.5 509,-24.5"/>
<text text-anchor="middle" x="456" y="-12.5" font-family="Helvetica,sans-Serif" font-size="10.00">jsonrpc::utils::Trim</text>
</a>
</g>
</g>
<!-- Node3&#45;&gt;Node4 -->
<g id="edge4_Node000003_Node000004" class="edge">
<title>Node3&#45;&gt;Node4</title>
<g id="a_edge4_Node000003_Node000004"><a xlink:title=" ">
<path fill="none" stroke="#63b8ff" d="M338.12,-15C356.34,-15 375.2,-15 392.31,-15"/>
<polygon fill="#63b8ff" stroke="#63b8ff" points="392.72,-18.5 402.72,-15 392.72,-11.5 392.72,-18.5"/>
</a>
</g>
</g>
</g>
</svg>
