<?xml version="1.0" encoding="UTF-8" standalone="no"?>
<!DOCTYPE svg PUBLIC "-//W3C//DTD SVG 1.1//EN"
 "http://www.w3.org/Graphics/SVG/1.1/DTD/svg11.dtd">
<!-- Generated by graphviz version 2.43.0 (0)
 -->
<!-- Title: src/transport/framed_transport.cpp Pages: 1 -->
<svg width="613pt" height="159pt"
 viewBox="0.00 0.00 613.00 159.00" xmlns="http://www.w3.org/2000/svg" xmlns:xlink="http://www.w3.org/1999/xlink">
<g id="graph0" class="graph" transform="scale(1 1) rotate(0) translate(4 155)">
<title>src/transport/framed_transport.cpp</title>
<!-- Node1 -->
<g id="Node000001" class="node">
<title>Node1</title>
<g id="a_Node000001"><a xlink:title=" ">
<polygon fill="#999999" stroke="#666666" points="373.5,-151 257.5,-151 257.5,-121 373.5,-121 373.5,-151"/>
<text text-anchor="start" x="265.5" y="-139" font-family="Helvetica,sans-Serif" font-size="10.00">src/transport/framed</text>
<text text-anchor="middle" x="315.5" y="-128" font-family="Helvetica,sans-Serif" font-size="10.00">_transport.cpp</text>
</a>
</g>
</g>
<!-- Node2 -->
<g id="Node000002" class="node">
<title>Node2</title>
<g id="a_Node000002"><a xlink:href="framed__transport_8hpp.html" target="_top" xlink:title=" ">
<polygon fill="white" stroke="#666666" points="263,-85 126,-85 126,-55 263,-55 263,-85"/>
<text text-anchor="start" x="134" y="-73" font-family="Helvetica,sans-Serif" font-size="10.00">jsonrpc/transport/framed</text>
<text text-anchor="middle" x="194.5" y="-62" font-family="Helvetica,sans-Serif" font-size="10.00">_transport.hpp</text>
</a>
</g>
</g>
<!-- Node1&#45;&gt;Node2 -->
<g id="edge1_Node000001_Node000002" class="edge">
<title>Node1&#45;&gt;Node2</title>
<g id="a_edge1_Node000001_Node000002"><a xlink:title=" ">
<path fill="none" stroke="#63b8ff" d="M288.95,-120.95C271.61,-111.78 248.77,-99.71 229.9,-89.72"/>
<polygon fill="#63b8ff" stroke="#63b8ff" points="231.47,-86.59 220.99,-85.01 228.2,-92.78 231.47,-86.59"/>
</a>
</g>
</g>
<!-- Node8 -->
<g id="Node000008" class="node">
<title>Node8</title>
<g id="a_Node000008"><a xlink:title=" ">
<polygon fill="#e0e0e0" stroke="#999999" points="348,-79.5 283,-79.5 283,-60.5 348,-60.5 348,-79.5"/>
<text text-anchor="middle" x="315.5" y="-67.5" font-family="Helvetica,sans-Serif" font-size="10.00">stdexcept</text>
</a>
</g>
</g>
<!-- Node1&#45;&gt;Node8 -->
<g id="edge7_Node000001_Node000008" class="edge">
<title>Node1&#45;&gt;Node8</title>
<g id="a_edge7_Node000001_Node000008"><a xlink:title=" ">
<path fill="none" stroke="#63b8ff" d="M315.5,-120.8C315.5,-111.7 315.5,-99.79 315.5,-89.9"/>
<polygon fill="#63b8ff" stroke="#63b8ff" points="319,-89.84 315.5,-79.84 312,-89.84 319,-89.84"/>
</a>
</g>
</g>
<!-- Node9 -->
<g id="Node000009" class="node">
<title>Node9</title>
<g id="a_Node000009"><a xlink:href="string__utils_8hpp.html" target="_top" xlink:title=" ">
<polygon fill="white" stroke="#666666" points="474,-85 367,-85 367,-55 474,-55 474,-85"/>
<text text-anchor="start" x="375" y="-73" font-family="Helvetica,sans-Serif" font-size="10.00">jsonrpc/utils/string</text>
<text text-anchor="middle" x="420.5" y="-62" font-family="Helvetica,sans-Serif" font-size="10.00">_utils.hpp</text>
</a>
</g>
</g>
<!-- Node1&#45;&gt;Node9 -->
<g id="edge8_Node000001_Node000009" class="edge">
<title>Node1&#45;&gt;Node9</title>
<g id="a_edge8_Node000001_Node000009"><a xlink:title=" ">
<path fill="none" stroke="#63b8ff" d="M338.54,-120.95C353.31,-111.95 372.69,-100.14 388.89,-90.27"/>
<polygon fill="#63b8ff" stroke="#63b8ff" points="390.79,-93.21 397.51,-85.01 387.15,-87.23 390.79,-93.21"/>
</a>
</g>
</g>
<!-- Node3 -->
<g id="Node000003" class="node">
<title>Node3</title>
<g id="a_Node000003"><a xlink:title=" ">
<polygon fill="#e0e0e0" stroke="#999999" points="53,-19 0,-19 0,0 53,0 53,-19"/>
<text text-anchor="middle" x="26.5" y="-7" font-family="Helvetica,sans-Serif" font-size="10.00">cstddef</text>
</a>
</g>
</g>
<!-- Node2&#45;&gt;Node3 -->
<g id="edge2_Node000002_Node000003" class="edge">
<title>Node2&#45;&gt;Node3</title>
<g id="a_edge2_Node000002_Node000003"><a xlink:title=" ">
<path fill="none" stroke="#63b8ff" d="M154.26,-54.99C125.73,-45.05 87.85,-31.86 60.77,-22.43"/>
<polygon fill="#63b8ff" stroke="#63b8ff" points="61.9,-19.12 51.31,-19.14 59.6,-25.73 61.9,-19.12"/>
</a>
</g>
</g>
<!-- Node4 -->
<g id="Node000004" class="node">
<title>Node4</title>
<g id="a_Node000004"><a xlink:title=" ">
<polygon fill="#e0e0e0" stroke="#999999" points="128,-19 71,-19 71,0 128,0 128,-19"/>
<text text-anchor="middle" x="99.5" y="-7" font-family="Helvetica,sans-Serif" font-size="10.00">ostream</text>
</a>
</g>
</g>
<!-- Node2&#45;&gt;Node4 -->
<g id="edge3_Node000002_Node000004" class="edge">
<title>Node2&#45;&gt;Node4</title>
<g id="a_edge3_Node000002_Node000004"><a xlink:title=" ">
<path fill="none" stroke="#63b8ff" d="M171.5,-54.84C156.5,-45.6 137,-33.59 122.07,-24.4"/>
<polygon fill="#63b8ff" stroke="#63b8ff" points="123.81,-21.36 113.46,-19.09 120.14,-27.32 123.81,-21.36"/>
</a>
</g>
</g>
<!-- Node5 -->
<g id="Node000005" class="node">
<title>Node5</title>
<g id="a_Node000005"><a xlink:title=" ">
<polygon fill="#e0e0e0" stroke="#999999" points="377.5,-19 333.5,-19 333.5,0 377.5,0 377.5,-19"/>
<text text-anchor="middle" x="355.5" y="-7" font-family="Helvetica,sans-Serif" font-size="10.00">string</text>
</a>
</g>
</g>
<!-- Node2&#45;&gt;Node5 -->
<g id="edge4_Node000002_Node000005" class="edge">
<title>Node2&#45;&gt;Node5</title>
<g id="a_edge4_Node000002_Node000005"><a xlink:title=" ">
<path fill="none" stroke="#63b8ff" d="M233.06,-54.99C260.78,-44.92 297.7,-31.5 323.72,-22.05"/>
<polygon fill="#63b8ff" stroke="#63b8ff" points="324.92,-25.34 333.12,-18.63 322.53,-18.76 324.92,-25.34"/>
</a>
</g>
</g>
<!-- Node6 -->
<g id="Node000006" class="node">
<title>Node6</title>
<g id="a_Node000006"><a xlink:title=" ">
<polygon fill="#e0e0e0" stroke="#999999" points="239,-19 146,-19 146,0 239,0 239,-19"/>
<text text-anchor="middle" x="192.5" y="-7" font-family="Helvetica,sans-Serif" font-size="10.00">unordered_map</text>
</a>
</g>
</g>
<!-- Node2&#45;&gt;Node6 -->
<g id="edge5_Node000002_Node000006" class="edge">
<title>Node2&#45;&gt;Node6</title>
<g id="a_edge5_Node000002_Node000006"><a xlink:title=" ">
<path fill="none" stroke="#63b8ff" d="M194.02,-54.84C193.76,-47.21 193.43,-37.7 193.15,-29.45"/>
<polygon fill="#63b8ff" stroke="#63b8ff" points="196.64,-29.14 192.8,-19.27 189.64,-29.38 196.64,-29.14"/>
</a>
</g>
</g>
<!-- Node7 -->
<g id="Node000007" class="node">
<title>Node7</title>
<g id="a_Node000007"><a xlink:title=" ">
<polygon fill="#e0e0e0" stroke="#999999" points="315.5,-19 257.5,-19 257.5,0 315.5,0 315.5,-19"/>
<text text-anchor="middle" x="286.5" y="-7" font-family="Helvetica,sans-Serif" font-size="10.00">asio.hpp</text>
</a>
</g>
</g>
<!-- Node2&#45;&gt;Node7 -->
<g id="edge6_Node000002_Node000007" class="edge">
<title>Node2&#45;&gt;Node7</title>
<g id="a_edge6_Node000002_Node000007"><a xlink:title=" ">
<path fill="none" stroke="#63b8ff" d="M216.77,-54.84C231.17,-45.68 249.83,-33.82 264.23,-24.66"/>
<polygon fill="#63b8ff" stroke="#63b8ff" points="266.42,-27.41 272.98,-19.09 262.67,-21.51 266.42,-27.41"/>
</a>
</g>
</g>
<!-- Node9&#45;&gt;Node5 -->
<g id="edge11_Node000009_Node000005" class="edge">
<title>Node9&#45;&gt;Node5</title>
<g id="a_edge11_Node000009_Node000005"><a xlink:title=" ">
<path fill="none" stroke="#63b8ff" d="M404.77,-54.84C395.14,-46.17 382.81,-35.08 372.89,-26.15"/>
<polygon fill="#63b8ff" stroke="#63b8ff" points="375.01,-23.35 365.24,-19.27 370.33,-28.56 375.01,-23.35"/>
</a>
</g>
</g>
<!-- Node10 -->
<g id="Node000010" class="node">
<title>Node10</title>
<g id="a_Node000010"><a xlink:title=" ">
<polygon fill="#e0e0e0" stroke="#999999" points="445,-19 396,-19 396,0 445,0 445,-19"/>
<text text-anchor="middle" x="420.5" y="-7" font-family="Helvetica,sans-Serif" font-size="10.00">cctype</text>
</a>
</g>
</g>
<!-- Node9&#45;&gt;Node10 -->
<g id="edge9_Node000009_Node000010" class="edge">
<title>Node9&#45;&gt;Node10</title>
<g id="a_edge9_Node000009_Node000010"><a xlink:title=" ">
<path fill="none" stroke="#63b8ff" d="M420.5,-54.84C420.5,-47.21 420.5,-37.7 420.5,-29.45"/>
<polygon fill="#63b8ff" stroke="#63b8ff" points="424,-29.27 420.5,-19.27 417,-29.27 424,-29.27"/>
</a>
</g>
</g>
<!-- Node11 -->
<g id="Node000011" class="node">
<title>Node11</title>
<g id="a_Node000011"><a xlink:title=" ">
<polygon fill="#e0e0e0" stroke="#999999" points="513.5,-19 463.5,-19 463.5,0 513.5,0 513.5,-19"/>
<text text-anchor="middle" x="488.5" y="-7" font-family="Helvetica,sans-Serif" font-size="10.00">ranges</text>
</a>
</g>
</g>
<!-- Node9&#45;&gt;Node11 -->
<g id="edge10_Node000009_Node000011" class="edge">
<title>Node9&#45;&gt;Node11</title>
<g id="a_edge10_Node000009_Node000011"><a xlink:title=" ">
<path fill="none" stroke="#63b8ff" d="M436.96,-54.84C447.13,-46.09 460.19,-34.85 470.62,-25.88"/>
<polygon fill="#63b8ff" stroke="#63b8ff" points="473.01,-28.44 478.31,-19.27 468.45,-23.13 473.01,-28.44"/>
</a>
</g>
</g>
<!-- Node12 -->
<g id="Node000012" class="node">
<title>Node12</title>
<g id="a_Node000012"><a xlink:title=" ">
<polygon fill="#e0e0e0" stroke="#999999" points="605,-19 532,-19 532,0 605,0 605,-19"/>
<text text-anchor="middle" x="568.5" y="-7" font-family="Helvetica,sans-Serif" font-size="10.00">string_view</text>
</a>
</g>
</g>
<!-- Node9&#45;&gt;Node12 -->
<g id="edge12_Node000009_Node000012" class="edge">
<title>Node9&#45;&gt;Node12</title>
<g id="a_edge12_Node000009_Node000012"><a xlink:title=" ">
<path fill="none" stroke="#63b8ff" d="M455.95,-54.99C480.64,-45.23 513.28,-32.33 537.05,-22.93"/>
<polygon fill="#63b8ff" stroke="#63b8ff" points="538.63,-26.07 546.64,-19.14 536.06,-19.56 538.63,-26.07"/>
</a>
</g>
</g>
</g>
</svg>
