<?xml version="1.0" encoding="UTF-8" standalone="no"?>
<!DOCTYPE svg PUBLIC "-//W3C//DTD SVG 1.1//EN"
 "http://www.w3.org/Graphics/SVG/1.1/DTD/svg11.dtd">
<!-- Generated by graphviz version 2.43.0 (0)
 -->
<!-- Title: src/transport/socket_transport.cpp Pages: 1 -->
<svg width="611pt" height="214pt"
 viewBox="0.00 0.00 610.50 214.00" xmlns="http://www.w3.org/2000/svg" xmlns:xlink="http://www.w3.org/1999/xlink">
<g id="graph0" class="graph" transform="scale(1 1) rotate(0) translate(4 210)">
<title>src/transport/socket_transport.cpp</title>
<!-- Node1 -->
<g id="Node000001" class="node">
<title>Node1</title>
<g id="a_Node000001"><a xlink:title=" ">
<polygon fill="#999999" stroke="#666666" points="484.5,-206 371.5,-206 371.5,-176 484.5,-176 484.5,-206"/>
<text text-anchor="start" x="379.5" y="-194" font-family="Helvetica,sans-Serif" font-size="10.00">src/transport/socket</text>
<text text-anchor="middle" x="428" y="-183" font-family="Helvetica,sans-Serif" font-size="10.00">_transport.cpp</text>
</a>
</g>
</g>
<!-- Node2 -->
<g id="Node000002" class="node">
<title>Node2</title>
<g id="a_Node000002"><a xlink:href="socket__transport_8hpp.html" target="_top" xlink:title=" ">
<polygon fill="white" stroke="#666666" points="261,-140 127,-140 127,-110 261,-110 261,-140"/>
<text text-anchor="start" x="135" y="-128" font-family="Helvetica,sans-Serif" font-size="10.00">jsonrpc/transport/socket</text>
<text text-anchor="middle" x="194" y="-117" font-family="Helvetica,sans-Serif" font-size="10.00">_transport.hpp</text>
</a>
</g>
</g>
<!-- Node1&#45;&gt;Node2 -->
<g id="edge1_Node000001_Node000002" class="edge">
<title>Node1&#45;&gt;Node2</title>
<g id="a_edge1_Node000001_Node000002"><a xlink:title=" ">
<path fill="none" stroke="#63b8ff" d="M376.65,-175.95C340.83,-166.16 292.88,-153.05 255.1,-142.71"/>
<polygon fill="#63b8ff" stroke="#63b8ff" points="255.8,-139.27 245.23,-140.01 253.95,-146.03 255.8,-139.27"/>
</a>
</g>
</g>
<!-- Node6 -->
<g id="Node000006" class="node">
<title>Node6</title>
<g id="a_Node000006"><a xlink:title=" ">
<polygon fill="#e0e0e0" stroke="#999999" points="389,-19 331,-19 331,0 389,0 389,-19"/>
<text text-anchor="middle" x="360" y="-7" font-family="Helvetica,sans-Serif" font-size="10.00">asio.hpp</text>
</a>
</g>
</g>
<!-- Node1&#45;&gt;Node6 -->
<g id="edge10_Node000001_Node000006" class="edge">
<title>Node1&#45;&gt;Node6</title>
<g id="a_edge10_Node000001_Node000006"><a xlink:title=" ">
<path fill="none" stroke="#63b8ff" d="M422.66,-175.91C410.46,-143.71 380.53,-64.7 366.93,-28.8"/>
<polygon fill="#63b8ff" stroke="#63b8ff" points="370.09,-27.25 363.27,-19.13 363.54,-29.73 370.09,-27.25"/>
</a>
</g>
</g>
<!-- Node8 -->
<g id="Node000008" class="node">
<title>Node8</title>
<g id="a_Node000008"><a xlink:title=" ">
<polygon fill="#e0e0e0" stroke="#999999" points="491.5,-134.5 426.5,-134.5 426.5,-115.5 491.5,-115.5 491.5,-134.5"/>
<text text-anchor="middle" x="459" y="-122.5" font-family="Helvetica,sans-Serif" font-size="10.00">stdexcept</text>
</a>
</g>
</g>
<!-- Node1&#45;&gt;Node8 -->
<g id="edge9_Node000001_Node000008" class="edge">
<title>Node1&#45;&gt;Node8</title>
<g id="a_edge9_Node000001_Node000008"><a xlink:title=" ">
<path fill="none" stroke="#63b8ff" d="M434.88,-175.8C439.43,-166.41 445.43,-154.02 450.31,-143.95"/>
<polygon fill="#63b8ff" stroke="#63b8ff" points="453.51,-145.37 454.72,-134.84 447.21,-142.32 453.51,-145.37"/>
</a>
</g>
</g>
<!-- Node9 -->
<g id="Node000009" class="node">
<title>Node9</title>
<g id="a_Node000009"><a xlink:title=" ">
<polygon fill="#e0e0e0" stroke="#999999" points="602.5,-134.5 509.5,-134.5 509.5,-115.5 602.5,-115.5 602.5,-134.5"/>
<text text-anchor="middle" x="556" y="-122.5" font-family="Helvetica,sans-Serif" font-size="10.00">spdlog/spdlog.h</text>
</a>
</g>
</g>
<!-- Node1&#45;&gt;Node9 -->
<g id="edge11_Node000001_Node000009" class="edge">
<title>Node1&#45;&gt;Node9</title>
<g id="a_edge11_Node000001_Node000009"><a xlink:title=" ">
<path fill="none" stroke="#63b8ff" d="M456.09,-175.95C478.04,-164.98 508.33,-149.83 529.79,-139.11"/>
<polygon fill="#63b8ff" stroke="#63b8ff" points="531.59,-142.12 538.97,-134.52 528.46,-135.86 531.59,-142.12"/>
</a>
</g>
</g>
<!-- Node3 -->
<g id="Node000003" class="node">
<title>Node3</title>
<g id="a_Node000003"><a xlink:title=" ">
<polygon fill="#e0e0e0" stroke="#999999" points="42,-74 0,-74 0,-55 42,-55 42,-74"/>
<text text-anchor="middle" x="21" y="-62" font-family="Helvetica,sans-Serif" font-size="10.00">array</text>
</a>
</g>
</g>
<!-- Node2&#45;&gt;Node3 -->
<g id="edge2_Node000002_Node000003" class="edge">
<title>Node2&#45;&gt;Node3</title>
<g id="a_edge2_Node000002_Node000003"><a xlink:title=" ">
<path fill="none" stroke="#63b8ff" d="M152.56,-109.99C121.58,-99.51 79.9,-85.42 51.82,-75.92"/>
<polygon fill="#63b8ff" stroke="#63b8ff" points="52.73,-72.54 42.14,-72.65 50.49,-79.17 52.73,-72.54"/>
</a>
</g>
</g>
<!-- Node4 -->
<g id="Node000004" class="node">
<title>Node4</title>
<g id="a_Node000004"><a xlink:title=" ">
<polygon fill="#e0e0e0" stroke="#999999" points="110,-74 60,-74 60,-55 110,-55 110,-74"/>
<text text-anchor="middle" x="85" y="-62" font-family="Helvetica,sans-Serif" font-size="10.00">atomic</text>
</a>
</g>
</g>
<!-- Node2&#45;&gt;Node4 -->
<g id="edge3_Node000002_Node000004" class="edge">
<title>Node2&#45;&gt;Node4</title>
<g id="a_edge3_Node000002_Node000004"><a xlink:title=" ">
<path fill="none" stroke="#63b8ff" d="M167.89,-109.99C150.36,-100.58 127.38,-88.24 110.06,-78.95"/>
<polygon fill="#63b8ff" stroke="#63b8ff" points="111.56,-75.78 101.1,-74.14 108.25,-81.95 111.56,-75.78"/>
</a>
</g>
</g>
<!-- Node5 -->
<g id="Node000005" class="node">
<title>Node5</title>
<g id="a_Node000005"><a xlink:title=" ">
<polygon fill="#e0e0e0" stroke="#999999" points="216,-19 172,-19 172,0 216,0 216,-19"/>
<text text-anchor="middle" x="194" y="-7" font-family="Helvetica,sans-Serif" font-size="10.00">string</text>
</a>
</g>
</g>
<!-- Node2&#45;&gt;Node5 -->
<g id="edge4_Node000002_Node000005" class="edge">
<title>Node2&#45;&gt;Node5</title>
<g id="a_edge4_Node000002_Node000005"><a xlink:title=" ">
<path fill="none" stroke="#63b8ff" d="M179.51,-109.7C171.16,-100.41 161.46,-87.54 157,-74 154.36,-65.98 154.13,-62.94 157,-55 160.94,-44.09 168.86,-33.96 176.36,-26.14"/>
<polygon fill="#63b8ff" stroke="#63b8ff" points="178.84,-28.61 183.56,-19.13 173.95,-23.6 178.84,-28.61"/>
</a>
</g>
</g>
<!-- Node2&#45;&gt;Node6 -->
<g id="edge5_Node000002_Node000006" class="edge">
<title>Node2&#45;&gt;Node6</title>
<g id="a_edge5_Node000002_Node000006"><a xlink:title=" ">
<path fill="none" stroke="#63b8ff" d="M261.32,-114.97C289.3,-108.03 320.05,-95.74 341,-74 352.59,-61.97 357.15,-43.16 358.92,-29.13"/>
<polygon fill="#63b8ff" stroke="#63b8ff" points="362.41,-29.4 359.82,-19.13 355.44,-28.77 362.41,-29.4"/>
</a>
</g>
</g>
<!-- Node7 -->
<g id="Node000007" class="node">
<title>Node7</title>
<g id="a_Node000007"><a xlink:href="transport_8hpp.html" target="_top" xlink:title=" ">
<polygon fill="white" stroke="#666666" points="332.5,-74 165.5,-74 165.5,-55 332.5,-55 332.5,-74"/>
<text text-anchor="middle" x="249" y="-62" font-family="Helvetica,sans-Serif" font-size="10.00">jsonrpc/transport/transport.hpp</text>
</a>
</g>
</g>
<!-- Node2&#45;&gt;Node7 -->
<g id="edge6_Node000002_Node000007" class="edge">
<title>Node2&#45;&gt;Node7</title>
<g id="a_edge6_Node000002_Node000007"><a xlink:title=" ">
<path fill="none" stroke="#63b8ff" d="M207.31,-109.84C215.3,-101.35 225.48,-90.52 233.78,-81.69"/>
<polygon fill="#63b8ff" stroke="#63b8ff" points="236.46,-83.95 240.76,-74.27 231.36,-79.15 236.46,-83.95"/>
</a>
</g>
</g>
<!-- Node7&#45;&gt;Node5 -->
<g id="edge7_Node000007_Node000005" class="edge">
<title>Node7&#45;&gt;Node5</title>
<g id="a_edge7_Node000007_Node000005"><a xlink:title=" ">
<path fill="none" stroke="#63b8ff" d="M239.92,-54.75C231.91,-47.03 220.04,-35.6 210.38,-26.28"/>
<polygon fill="#63b8ff" stroke="#63b8ff" points="212.54,-23.51 202.91,-19.09 207.69,-28.55 212.54,-23.51"/>
</a>
</g>
</g>
<!-- Node7&#45;&gt;Node6 -->
<g id="edge8_Node000007_Node000006" class="edge">
<title>Node7&#45;&gt;Node6</title>
<g id="a_edge8_Node000007_Node000006"><a xlink:title=" ">
<path fill="none" stroke="#63b8ff" d="M266.83,-54.98C284.61,-46.5 312.15,-33.35 332.68,-23.54"/>
<polygon fill="#63b8ff" stroke="#63b8ff" points="334.33,-26.64 341.84,-19.17 331.31,-20.32 334.33,-26.64"/>
</a>
</g>
</g>
</g>
</svg>
