<?xml version="1.0" encoding="UTF-8" standalone="no"?>
<!DOCTYPE svg PUBLIC "-//W3C//DTD SVG 1.1//EN"
 "http://www.w3.org/Graphics/SVG/1.1/DTD/svg11.dtd">
<!-- Generated by graphviz version 2.43.0 (0)
 -->
<!-- Title: include/jsonrpc/transport/socket_transport.hpp Pages: 1 -->
<svg width="660pt" height="203pt"
 viewBox="0.00 0.00 660.00 203.00" xmlns="http://www.w3.org/2000/svg" xmlns:xlink="http://www.w3.org/1999/xlink">
<g id="graph0" class="graph" transform="scale(1 1) rotate(0) translate(4 199)">
<title>include/jsonrpc/transport/socket_transport.hpp</title>
<!-- Node1 -->
<g id="Node000001" class="node">
<title>Node1</title>
<g id="a_Node000001"><a xlink:title=" ">
<polygon fill="#999999" stroke="#666666" points="246.5,-195 109.5,-195 109.5,-165 246.5,-165 246.5,-195"/>
<text text-anchor="start" x="117.5" y="-183" font-family="Helvetica,sans-Serif" font-size="10.00">include/jsonrpc/transport</text>
<text text-anchor="middle" x="178" y="-172" font-family="Helvetica,sans-Serif" font-size="10.00">/socket_transport.hpp</text>
</a>
</g>
</g>
<!-- Node2 -->
<g id="Node000002" class="node">
<title>Node2</title>
<g id="a_Node000002"><a xlink:title=" ">
<polygon fill="#e0e0e0" stroke="#999999" points="42,-129 0,-129 0,-110 42,-110 42,-129"/>
<text text-anchor="middle" x="21" y="-117" font-family="Helvetica,sans-Serif" font-size="10.00">array</text>
</a>
</g>
</g>
<!-- Node1&#45;&gt;Node2 -->
<g id="edge1_Node000001_Node000002" class="edge">
<title>Node1&#45;&gt;Node2</title>
<g id="a_edge1_Node000001_Node000002"><a xlink:title=" ">
<path fill="none" stroke="#63b8ff" d="M140.39,-164.99C113.33,-154.9 77.26,-141.46 51.87,-132"/>
<polygon fill="#63b8ff" stroke="#63b8ff" points="52.96,-128.68 42.37,-128.46 50.52,-135.23 52.96,-128.68"/>
</a>
</g>
</g>
<!-- Node3 -->
<g id="Node000003" class="node">
<title>Node3</title>
<g id="a_Node000003"><a xlink:title=" ">
<polygon fill="#e0e0e0" stroke="#999999" points="110,-129 60,-129 60,-110 110,-110 110,-129"/>
<text text-anchor="middle" x="85" y="-117" font-family="Helvetica,sans-Serif" font-size="10.00">atomic</text>
</a>
</g>
</g>
<!-- Node1&#45;&gt;Node3 -->
<g id="edge2_Node000001_Node000003" class="edge">
<title>Node1&#45;&gt;Node3</title>
<g id="a_edge2_Node000001_Node000003"><a xlink:title=" ">
<path fill="none" stroke="#63b8ff" d="M155.49,-164.84C140.94,-155.68 122.07,-143.82 107.51,-134.66"/>
<polygon fill="#63b8ff" stroke="#63b8ff" points="108.99,-131.46 98.66,-129.09 105.26,-137.38 108.99,-131.46"/>
</a>
</g>
</g>
<!-- Node4 -->
<g id="Node000004" class="node">
<title>Node4</title>
<g id="a_Node000004"><a xlink:title=" ">
<polygon fill="#e0e0e0" stroke="#999999" points="175.5,-129 128.5,-129 128.5,-110 175.5,-110 175.5,-129"/>
<text text-anchor="middle" x="152" y="-117" font-family="Helvetica,sans-Serif" font-size="10.00">deque</text>
</a>
</g>
</g>
<!-- Node1&#45;&gt;Node4 -->
<g id="edge3_Node000001_Node000004" class="edge">
<title>Node1&#45;&gt;Node4</title>
<g id="a_edge3_Node000001_Node000004"><a xlink:title=" ">
<path fill="none" stroke="#63b8ff" d="M171.71,-164.84C168.2,-156.95 163.8,-147.05 160.05,-138.61"/>
<polygon fill="#63b8ff" stroke="#63b8ff" points="163.16,-136.98 155.9,-129.27 156.76,-139.83 163.16,-136.98"/>
</a>
</g>
</g>
<!-- Node5 -->
<g id="Node000005" class="node">
<title>Node5</title>
<g id="a_Node000005"><a xlink:title=" ">
<polygon fill="#e0e0e0" stroke="#999999" points="444,-19 400,-19 400,0 444,0 444,-19"/>
<text text-anchor="middle" x="422" y="-7" font-family="Helvetica,sans-Serif" font-size="10.00">string</text>
</a>
</g>
</g>
<!-- Node1&#45;&gt;Node5 -->
<g id="edge4_Node000001_Node000005" class="edge">
<title>Node1&#45;&gt;Node5</title>
<g id="a_edge4_Node000001_Node000005"><a xlink:title=" ">
<path fill="none" stroke="#63b8ff" d="M178.88,-164.66C181.27,-138.69 190.15,-83.89 223,-55 247.51,-33.45 339.95,-19.86 389.75,-13.94"/>
<polygon fill="#63b8ff" stroke="#63b8ff" points="390.15,-17.42 399.69,-12.79 389.35,-10.46 390.15,-17.42"/>
</a>
</g>
</g>
<!-- Node6 -->
<g id="Node000006" class="node">
<title>Node6</title>
<g id="a_Node000006"><a xlink:title=" ">
<polygon fill="#e0e0e0" stroke="#999999" points="290,-74 232,-74 232,-55 290,-55 290,-74"/>
<text text-anchor="middle" x="261" y="-62" font-family="Helvetica,sans-Serif" font-size="10.00">asio.hpp</text>
</a>
</g>
</g>
<!-- Node1&#45;&gt;Node6 -->
<g id="edge5_Node000001_Node000006" class="edge">
<title>Node1&#45;&gt;Node6</title>
<g id="a_edge5_Node000001_Node000006"><a xlink:title=" ">
<path fill="none" stroke="#63b8ff" d="M189.86,-164.8C197.99,-154.92 208.9,-141.35 218,-129 229.31,-113.65 241.43,-95.6 249.9,-82.67"/>
<polygon fill="#63b8ff" stroke="#63b8ff" points="252.85,-84.57 255.37,-74.28 246.98,-80.75 252.85,-84.57"/>
</a>
</g>
</g>
<!-- Node7 -->
<g id="Node000007" class="node">
<title>Node7</title>
<g id="a_Node000007"><a xlink:href="transport_8hpp.html" target="_top" xlink:title=" ">
<polygon fill="white" stroke="#666666" points="447.5,-129 280.5,-129 280.5,-110 447.5,-110 447.5,-129"/>
<text text-anchor="middle" x="364" y="-117" font-family="Helvetica,sans-Serif" font-size="10.00">jsonrpc/transport/transport.hpp</text>
</a>
</g>
</g>
<!-- Node1&#45;&gt;Node7 -->
<g id="edge6_Node000001_Node000007" class="edge">
<title>Node1&#45;&gt;Node7</title>
<g id="a_edge6_Node000001_Node000007"><a xlink:title=" ">
<path fill="none" stroke="#63b8ff" d="M222.55,-164.99C254.51,-154.94 297.06,-141.55 327.12,-132.1"/>
<polygon fill="#63b8ff" stroke="#63b8ff" points="328.31,-135.39 336.8,-129.05 326.21,-128.72 328.31,-135.39"/>
</a>
</g>
</g>
<!-- Node7&#45;&gt;Node5 -->
<g id="edge8_Node000007_Node000005" class="edge">
<title>Node7&#45;&gt;Node5</title>
<g id="a_edge8_Node000007_Node000005"><a xlink:title=" ">
<path fill="none" stroke="#63b8ff" d="M376.64,-109.8C387.27,-101.77 401.99,-88.87 410,-74 417.41,-60.25 420.31,-42.68 421.41,-29.5"/>
<polygon fill="#63b8ff" stroke="#63b8ff" points="424.92,-29.45 421.99,-19.27 417.93,-29.05 424.92,-29.45"/>
</a>
</g>
</g>
<!-- Node7&#45;&gt;Node6 -->
<g id="edge9_Node000007_Node000006" class="edge">
<title>Node7&#45;&gt;Node6</title>
<g id="a_edge9_Node000007_Node000006"><a xlink:title=" ">
<path fill="none" stroke="#63b8ff" d="M347.45,-109.98C331.11,-101.57 305.87,-88.59 286.87,-78.81"/>
<polygon fill="#63b8ff" stroke="#63b8ff" points="288.34,-75.63 277.85,-74.17 285.14,-81.86 288.34,-75.63"/>
</a>
</g>
</g>
<!-- Node8 -->
<g id="Node000008" class="node">
<title>Node8</title>
<g id="a_Node000008"><a xlink:title=" ">
<polygon fill="#e0e0e0" stroke="#999999" points="652,-19 590,-19 590,0 652,0 652,-19"/>
<text text-anchor="middle" x="621" y="-7" font-family="Helvetica,sans-Serif" font-size="10.00">expected</text>
</a>
</g>
</g>
<!-- Node7&#45;&gt;Node8 -->
<g id="edge7_Node000007_Node000008" class="edge">
<title>Node7&#45;&gt;Node8</title>
<g id="a_edge7_Node000007_Node000008"><a xlink:title=" ">
<path fill="none" stroke="#63b8ff" d="M447.77,-110.21C503.25,-103.23 569.75,-91.54 592,-74 606.11,-62.88 613.6,-43.35 617.41,-28.88"/>
<polygon fill="#63b8ff" stroke="#63b8ff" points="620.85,-29.54 619.65,-19.02 614.02,-27.99 620.85,-29.54"/>
</a>
</g>
</g>
<!-- Node9 -->
<g id="Node000009" class="node">
<title>Node9</title>
<g id="a_Node000009"><a xlink:title=" ">
<polygon fill="#e0e0e0" stroke="#999999" points="401.5,-74 308.5,-74 308.5,-55 401.5,-55 401.5,-74"/>
<text text-anchor="middle" x="355" y="-62" font-family="Helvetica,sans-Serif" font-size="10.00">spdlog/spdlog.h</text>
</a>
</g>
</g>
<!-- Node7&#45;&gt;Node9 -->
<g id="edge10_Node000007_Node000009" class="edge">
<title>Node7&#45;&gt;Node9</title>
<g id="a_edge10_Node000007_Node000009"><a xlink:title=" ">
<path fill="none" stroke="#63b8ff" d="M362.51,-109.75C361.33,-102.8 359.64,-92.85 358.16,-84.13"/>
<polygon fill="#63b8ff" stroke="#63b8ff" points="361.58,-83.36 356.46,-74.09 354.68,-84.53 361.58,-83.36"/>
</a>
</g>
</g>
<!-- Node10 -->
<g id="Node000010" class="node">
<title>Node10</title>
<g id="a_Node000010"><a xlink:href="error_8hpp.html" target="_top" xlink:title=" ">
<polygon fill="white" stroke="#666666" points="583.5,-74 458.5,-74 458.5,-55 583.5,-55 583.5,-74"/>
<text text-anchor="middle" x="521" y="-62" font-family="Helvetica,sans-Serif" font-size="10.00">jsonrpc/error/error.hpp</text>
</a>
</g>
</g>
<!-- Node7&#45;&gt;Node10 -->
<g id="edge11_Node000007_Node000010" class="edge">
<title>Node7&#45;&gt;Node10</title>
<g id="a_edge11_Node000007_Node000010"><a xlink:title=" ">
<path fill="none" stroke="#63b8ff" d="M389.22,-109.98C415.36,-101.16 456.4,-87.31 485.73,-77.41"/>
<polygon fill="#63b8ff" stroke="#63b8ff" points="487.22,-80.6 495.58,-74.08 484.98,-73.96 487.22,-80.6"/>
</a>
</g>
</g>
<!-- Node10&#45;&gt;Node5 -->
<g id="edge13_Node000010_Node000005" class="edge">
<title>Node10&#45;&gt;Node5</title>
<g id="a_edge13_Node000010_Node000005"><a xlink:title=" ">
<path fill="none" stroke="#63b8ff" d="M505.09,-54.98C489.45,-46.61 465.34,-33.7 447.12,-23.95"/>
<polygon fill="#63b8ff" stroke="#63b8ff" points="448.66,-20.8 438.2,-19.17 445.36,-26.98 448.66,-20.8"/>
</a>
</g>
</g>
<!-- Node10&#45;&gt;Node8 -->
<g id="edge12_Node000010_Node000008" class="edge">
<title>Node10&#45;&gt;Node8</title>
<g id="a_edge12_Node000010_Node000008"><a xlink:title=" ">
<path fill="none" stroke="#63b8ff" d="M537.07,-54.98C552.86,-46.61 577.22,-33.7 595.63,-23.95"/>
<polygon fill="#63b8ff" stroke="#63b8ff" points="597.44,-26.95 604.64,-19.17 594.17,-20.76 597.44,-26.95"/>
</a>
</g>
</g>
<!-- Node11 -->
<g id="Node000011" class="node">
<title>Node11</title>
<g id="a_Node000011"><a xlink:title=" ">
<polygon fill="#e0e0e0" stroke="#999999" points="572,-19 462,-19 462,0 572,0 572,-19"/>
<text text-anchor="middle" x="517" y="-7" font-family="Helvetica,sans-Serif" font-size="10.00">nlohmann/json.hpp</text>
</a>
</g>
</g>
<!-- Node10&#45;&gt;Node11 -->
<g id="edge14_Node000010_Node000011" class="edge">
<title>Node10&#45;&gt;Node11</title>
<g id="a_edge14_Node000010_Node000011"><a xlink:title=" ">
<path fill="none" stroke="#63b8ff" d="M520.34,-54.75C519.82,-47.8 519.06,-37.85 518.41,-29.13"/>
<polygon fill="#63b8ff" stroke="#63b8ff" points="521.89,-28.8 517.65,-19.09 514.91,-29.32 521.89,-28.8"/>
</a>
</g>
</g>
</g>
</svg>
