<?xml version="1.0" encoding="UTF-8" standalone="no"?>
<!DOCTYPE svg PUBLIC "-//W3C//DTD SVG 1.1//EN"
 "http://www.w3.org/Graphics/SVG/1.1/DTD/svg11.dtd">
<!-- Generated by graphviz version 2.43.0 (0)
 -->
<!-- Title: include/jsonrpc/endpoint/task_executor.hpp Pages: 1 -->
<svg width="316pt" height="225pt"
 viewBox="0.00 0.00 315.50 225.00" xmlns="http://www.w3.org/2000/svg" xmlns:xlink="http://www.w3.org/1999/xlink">
<g id="graph0" class="graph" transform="scale(1 1) rotate(0) translate(4 221)">
<title>include/jsonrpc/endpoint/task_executor.hpp</title>
<!-- Node1 -->
<g id="Node000001" class="node">
<title>Node1</title>
<g id="a_Node000001"><a xlink:title=" ">
<polygon fill="#999999" stroke="#666666" points="187.5,-217 51.5,-217 51.5,-187 187.5,-187 187.5,-217"/>
<text text-anchor="start" x="59.5" y="-205" font-family="Helvetica,sans-Serif" font-size="10.00">include/jsonrpc/endpoint</text>
<text text-anchor="middle" x="119.5" y="-194" font-family="Helvetica,sans-Serif" font-size="10.00">/task_executor.hpp</text>
</a>
</g>
</g>
<!-- Node2 -->
<g id="Node000002" class="node">
<title>Node2</title>
<g id="a_Node000002"><a xlink:href="dispatcher_8hpp.html" target="_top" xlink:title=" ">
<polygon fill="white" stroke="#666666" points="235.5,-151 99.5,-151 99.5,-121 235.5,-121 235.5,-151"/>
<text text-anchor="start" x="107.5" y="-139" font-family="Helvetica,sans-Serif" font-size="10.00">include/jsonrpc/endpoint</text>
<text text-anchor="middle" x="167.5" y="-128" font-family="Helvetica,sans-Serif" font-size="10.00">/dispatcher.hpp</text>
</a>
</g>
</g>
<!-- Node1&#45;&gt;Node2 -->
<g id="edge1_Node000001_Node000002" class="edge">
<title>Node1&#45;&gt;Node2</title>
<g id="a_edge1_Node000001_Node000002"><a xlink:title=" ">
<path fill="none" stroke="#63b8ff" d="M136.36,-178.53C143.18,-169.43 150.85,-159.19 156.88,-151.16"/>
<polygon fill="#63b8ff" stroke="#63b8ff" points="133.35,-176.7 130.15,-186.8 138.95,-180.9 133.35,-176.7"/>
</a>
</g>
</g>
<!-- Node3 -->
<g id="Node000003" class="node">
<title>Node3</title>
<g id="a_Node000003"><a xlink:href="endpoint_8hpp.html" target="_top" xlink:title=" ">
<polygon fill="white" stroke="#666666" points="139.5,-85 3.5,-85 3.5,-55 139.5,-55 139.5,-85"/>
<text text-anchor="start" x="11.5" y="-73" font-family="Helvetica,sans-Serif" font-size="10.00">include/jsonrpc/endpoint</text>
<text text-anchor="middle" x="71.5" y="-62" font-family="Helvetica,sans-Serif" font-size="10.00">/endpoint.hpp</text>
</a>
</g>
</g>
<!-- Node1&#45;&gt;Node3 -->
<g id="edge5_Node000001_Node000003" class="edge">
<title>Node1&#45;&gt;Node3</title>
<g id="a_edge5_Node000001_Node000003"><a xlink:title=" ">
<path fill="none" stroke="#63b8ff" d="M104.28,-178.01C99.33,-169.76 94.17,-160.21 90.5,-151 81.67,-128.86 76.28,-101.56 73.59,-85.25"/>
<polygon fill="#63b8ff" stroke="#63b8ff" points="101.43,-180.06 109.69,-186.7 107.37,-176.36 101.43,-180.06"/>
</a>
</g>
</g>
<!-- Node2&#45;&gt;Node3 -->
<g id="edge2_Node000002_Node000003" class="edge">
<title>Node2&#45;&gt;Node3</title>
<g id="a_edge2_Node000002_Node000003"><a xlink:title=" ">
<path fill="none" stroke="#63b8ff" d="M137.54,-115.03C123.01,-105.34 105.91,-93.94 92.75,-85.16"/>
<polygon fill="#63b8ff" stroke="#63b8ff" points="135.93,-118.16 146.19,-120.8 139.82,-112.34 135.93,-118.16"/>
</a>
</g>
</g>
<!-- Node5 -->
<g id="Node000005" class="node">
<title>Node5</title>
<g id="a_Node000005"><a xlink:href="dispatcher_8cpp.html" target="_top" xlink:title=" ">
<polygon fill="white" stroke="#666666" points="307.5,-79.5 157.5,-79.5 157.5,-60.5 307.5,-60.5 307.5,-79.5"/>
<text text-anchor="middle" x="232.5" y="-67.5" font-family="Helvetica,sans-Serif" font-size="10.00">src/endpoint/dispatcher.cpp</text>
</a>
</g>
</g>
<!-- Node2&#45;&gt;Node5 -->
<g id="edge4_Node000002_Node000005" class="edge">
<title>Node2&#45;&gt;Node5</title>
<g id="a_edge4_Node000002_Node000005"><a xlink:title=" ">
<path fill="none" stroke="#63b8ff" d="M189.23,-113.6C200.92,-102.1 214.7,-88.52 223.52,-79.84"/>
<polygon fill="#63b8ff" stroke="#63b8ff" points="186.6,-111.29 181.93,-120.8 191.51,-116.27 186.6,-111.29"/>
</a>
</g>
</g>
<!-- Node4 -->
<g id="Node000004" class="node">
<title>Node4</title>
<g id="a_Node000004"><a xlink:href="endpoint_8cpp.html" target="_top" xlink:title=" ">
<polygon fill="white" stroke="#666666" points="143,-19 0,-19 0,0 143,0 143,-19"/>
<text text-anchor="middle" x="71.5" y="-7" font-family="Helvetica,sans-Serif" font-size="10.00">src/endpoint/endpoint.cpp</text>
</a>
</g>
</g>
<!-- Node3&#45;&gt;Node4 -->
<g id="edge3_Node000003_Node000004" class="edge">
<title>Node3&#45;&gt;Node4</title>
<g id="a_edge3_Node000003_Node000004"><a xlink:title=" ">
<path fill="none" stroke="#63b8ff" d="M71.5,-44.75C71.5,-35.72 71.5,-26.03 71.5,-19.27"/>
<polygon fill="#63b8ff" stroke="#63b8ff" points="68,-44.84 71.5,-54.84 75,-44.84 68,-44.84"/>
</a>
</g>
</g>
</g>
</svg>
